<svg width="24" height="24" viewBox="0 0 24 24" fill="none" xmlns="http://www.w3.org/2000/svg">
<g clip-path="url(#clip0_12_29)">
<path d="M12.5 8.989L11.003 5.996L8.01 4.499L11.003 3.002L12.5 0.011L13.997 3.004L16.99 4.501L13.997 5.998L12.5 8.991V8.989ZM10.246 4.5L11.749 5.251L12.5 6.753L13.251 5.251L14.754 4.5L13.251 3.749L12.5 2.247L11.749 3.749L10.246 4.5ZM5 12C4.448 12 4 12.448 4 13C4 13.552 4.448 14 5 14C5.552 14 6 13.552 6 13C6 12.448 5.552 12 5 12ZM1 8C0.448 8 0 8.448 0 9C0 9.552 0.448 10 1 10C1.552 10 2 9.552 2 9C2 8.448 1.552 8 1 8ZM5 4C4.448 4 4 4.448 4 5C4 5.552 4.448 6 5 6C5.552 6 6 5.552 6 5C6 4.448 5.552 4 5 4ZM1 0C0.448 0 0 0.448 0 1C0 1.552 0.448 2 1 2C1.552 2 2 1.552 2 1C2 0.448 1.552 0 1 0ZM23 12C22.448 12 22 12.448 22 13C22 13.552 22.448 14 23 14C23.552 14 24 13.552 24 13C24 12.448 23.552 12 23 12ZM19 8C18.448 8 18 8.448 18 9C18 9.552 18.448 10 19 10C19.552 10 20 9.552 20 9C20 8.448 19.552 8 19 8ZM23 4C22.448 4 22 4.448 22 5C22 5.552 22.448 6 23 6C23.552 6 24 5.552 24 5C24 4.448 23.552 4 23 4ZM19 0C18.448 0 18 0.448 18 1C18 1.552 18.448 2 19 2C19.552 2 20 1.552 20 1C20 0.448 19.552 0 19 0ZM14 22C13.448 22 13 22.448 13 23C13 23.552 13.448 24 14 24C14.552 24 15 23.552 15 23C15 22.448 14.552 22 14 22ZM11 17C10.448 17 10 17.448 10 18C10 18.552 10.448 19 11 19C11.552 19 12 18.552 12 18C12 17.448 11.552 17 11 17ZM15 13C14.448 13 14 13.448 14 14C14 14.552 14.448 15 15 15C15.552 15 16 14.552 16 14C16 13.448 15.552 13 15 13ZM10 10C9.448 10 9 10.448 9 11C9 11.552 9.448 12 10 12C10.552 12 11 11.552 11 11C11 10.448 10.552 10 10 10ZM19.513 23.989L18.016 20.996L15.023 19.499L18.016 18.002L19.513 15.009L21.01 18.002L24.003 19.499L21.01 20.996L19.513 23.989ZM17.259 19.5L18.762 20.251L19.513 21.753L20.264 20.251L21.767 19.5L20.264 18.749L19.513 17.247L18.762 18.749L17.259 19.5ZM4.513 23.989L3.016 20.996L0.022 19.5L3.015 18.003L4.512 15.01L6.009 18.003L9.002 19.5L6.009 20.997L4.512 23.99L4.513 23.989ZM2.259 19.5L3.762 20.251L4.513 21.753L5.264 20.251L6.767 19.5L5.264 18.749L4.513 17.247L3.762 18.749L2.259 19.5Z" fill="white"/>
</g>
<defs>
<clipPath id="clip0_12_29">
<rect width="24" height="24" fill="white"/>
</clipPath>
</defs>
</svg>
